<svg width="64" height="64" viewBox="0 0 64 64" fill="none" xmlns="http://www.w3.org/2000/svg">
<g filter="url(#filter0_d_153_306)">
<mask id="mask0_153_306" style="mask-type:alpha" maskUnits="userSpaceOnUse" x="18" y="15" width="24" height="25">
<circle cx="30" cy="27.9634" r="12" fill="#C4C4C4"/>
</mask>
<g mask="url(#mask0_153_306)">
<rect x="15.375" y="16" width="36.75" height="24" rx="2" fill="white"/>
<mask id="mask1_153_306" style="mask-type:luminance" maskUnits="userSpaceOnUse" x="15" y="16" width="38" height="24">
<rect x="15.375" y="16" width="36.75" height="24" rx="2" fill="white"/>
</mask>
<g mask="url(#mask1_153_306)">
<path fill-rule="evenodd" clip-rule="evenodd" d="M52.125 16H15.375V17.6H52.125V16ZM52.125 19.2H15.375V20.8H52.125V19.2ZM15.375 22.4H52.125V24H15.375V22.4ZM52.125 25.6H15.375V27.2H52.125V25.6ZM15.375 28.8H52.125V30.4H15.375V28.8ZM52.125 32H15.375V33.6H52.125V32ZM15.375 35.2H52.125V36.8H15.375V35.2ZM52.125 38.4H15.375V40H52.125V38.4Z" fill="#D02F44"/>
<rect x="15.375" y="16" width="15.75" height="11.2" fill="#46467F"/>
<g filter="url(#filter1_d_153_306)">
<path fill-rule="evenodd" clip-rule="evenodd" d="M18.875 18.4001C18.875 18.8419 18.4832 19.2001 18 19.2001C17.5168 19.2001 17.125 18.8419 17.125 18.4001C17.125 17.9583 17.5168 17.6001 18 17.6001C18.4832 17.6001 18.875 17.9583 18.875 18.4001ZM22.375 18.4001C22.375 18.8419 21.9833 19.2001 21.5 19.2001C21.0168 19.2001 20.625 18.8419 20.625 18.4001C20.625 17.9583 21.0168 17.6001 21.5 17.6001C21.9833 17.6001 22.375 17.9583 22.375 18.4001ZM24.9999 19.2001C25.4831 19.2001 25.8749 18.8419 25.8749 18.4001C25.8749 17.9583 25.4831 17.6001 24.9999 17.6001C24.5166 17.6001 24.1249 17.9583 24.1249 18.4001C24.1249 18.8419 24.5166 19.2001 24.9999 19.2001ZM29.375 18.4001C29.375 18.8419 28.9832 19.2001 28.5 19.2001C28.0167 19.2001 27.625 18.8419 27.625 18.4001C27.625 17.9583 28.0167 17.6001 28.5 17.6001C28.9832 17.6001 29.375 17.9583 29.375 18.4001ZM19.75 20.8001C20.2333 20.8001 20.625 20.4419 20.625 20.0001C20.625 19.5583 20.2333 19.2001 19.75 19.2001C19.2668 19.2001 18.875 19.5583 18.875 20.0001C18.875 20.4419 19.2668 20.8001 19.75 20.8001ZM24.125 20.0001C24.125 20.4419 23.7333 20.8001 23.25 20.8001C22.7668 20.8001 22.375 20.4419 22.375 20.0001C22.375 19.5583 22.7668 19.2001 23.25 19.2001C23.7333 19.2001 24.125 19.5583 24.125 20.0001ZM26.75 20.8001C27.2332 20.8001 27.625 20.4419 27.625 20.0001C27.625 19.5583 27.2332 19.2001 26.75 19.2001C26.2667 19.2001 25.875 19.5583 25.875 20.0001C25.875 20.4419 26.2667 20.8001 26.75 20.8001ZM29.375 21.6001C29.375 22.0419 28.9832 22.4001 28.5 22.4001C28.0167 22.4001 27.625 22.0419 27.625 21.6001C27.625 21.1583 28.0167 20.8001 28.5 20.8001C28.9832 20.8001 29.375 21.1583 29.375 21.6001ZM24.9999 22.4001C25.4831 22.4001 25.8749 22.0419 25.8749 21.6001C25.8749 21.1583 25.4831 20.8001 24.9999 20.8001C24.5166 20.8001 24.1249 21.1583 24.1249 21.6001C24.1249 22.0419 24.5166 22.4001 24.9999 22.4001ZM22.375 21.6001C22.375 22.0419 21.9833 22.4001 21.5 22.4001C21.0168 22.4001 20.625 22.0419 20.625 21.6001C20.625 21.1583 21.0168 20.8001 21.5 20.8001C21.9833 20.8001 22.375 21.1583 22.375 21.6001ZM18 22.4001C18.4832 22.4001 18.875 22.0419 18.875 21.6001C18.875 21.1583 18.4832 20.8001 18 20.8001C17.5168 20.8001 17.125 21.1583 17.125 21.6001C17.125 22.0419 17.5168 22.4001 18 22.4001ZM20.625 23.2001C20.625 23.6419 20.2333 24.0001 19.75 24.0001C19.2668 24.0001 18.875 23.6419 18.875 23.2001C18.875 22.7582 19.2668 22.4001 19.75 22.4001C20.2333 22.4001 20.625 22.7582 20.625 23.2001ZM23.25 24.0001C23.7333 24.0001 24.125 23.6419 24.125 23.2001C24.125 22.7582 23.7333 22.4001 23.25 22.4001C22.7668 22.4001 22.375 22.7582 22.375 23.2001C22.375 23.6419 22.7668 24.0001 23.25 24.0001ZM27.625 23.2001C27.625 23.6419 27.2332 24.0001 26.75 24.0001C26.2667 24.0001 25.875 23.6419 25.875 23.2001C25.875 22.7582 26.2667 22.4001 26.75 22.4001C27.2332 22.4001 27.625 22.7582 27.625 23.2001ZM28.5 25.6001C28.9832 25.6001 29.375 25.2419 29.375 24.8001C29.375 24.3582 28.9832 24.0001 28.5 24.0001C28.0167 24.0001 27.625 24.3582 27.625 24.8001C27.625 25.2419 28.0167 25.6001 28.5 25.6001ZM25.8749 24.8001C25.8749 25.2419 25.4831 25.6001 24.9999 25.6001C24.5166 25.6001 24.1249 25.2419 24.1249 24.8001C24.1249 24.3582 24.5166 24.0001 24.9999 24.0001C25.4831 24.0001 25.8749 24.3582 25.8749 24.8001ZM21.5 25.6001C21.9833 25.6001 22.375 25.2419 22.375 24.8001C22.375 24.3582 21.9833 24.0001 21.5 24.0001C21.0168 24.0001 20.625 24.3582 20.625 24.8001C20.625 25.2419 21.0168 25.6001 21.5 25.6001ZM18.875 24.8001C18.875 25.2419 18.4832 25.6001 18 25.6001C17.5168 25.6001 17.125 25.2419 17.125 24.8001C17.125 24.3582 17.5168 24.0001 18 24.0001C18.4832 24.0001 18.875 24.3582 18.875 24.8001Z" fill="url(#paint0_linear_153_306)"/>
</g>
</g>
</g>
</g>
<defs>
<filter id="filter0_d_153_306" x="0" y="0" width="64" height="63.9634" filterUnits="userSpaceOnUse" color-interpolation-filters="sRGB">
<feFlood flood-opacity="0" result="BackgroundImageFix"/>
<feColorMatrix in="SourceAlpha" type="matrix" values="0 0 0 0 0 0 0 0 0 0 0 0 0 0 0 0 0 0 127 0" result="hardAlpha"/>
<feOffset dx="2" dy="4"/>
<feGaussianBlur stdDeviation="10"/>
<feColorMatrix type="matrix" values="0 0 0 0 0 0 0 0 0 0 0 0 0 0 0 0 0 0 0.1 0"/>
<feBlend mode="normal" in2="BackgroundImageFix" result="effect1_dropShadow_153_306"/>
<feBlend mode="normal" in="SourceGraphic" in2="effect1_dropShadow_153_306" result="shape"/>
</filter>
<filter id="filter1_d_153_306" x="17.125" y="17.6001" width="12.25" height="9" filterUnits="userSpaceOnUse" color-interpolation-filters="sRGB">
<feFlood flood-opacity="0" result="BackgroundImageFix"/>
<feColorMatrix in="SourceAlpha" type="matrix" values="0 0 0 0 0 0 0 0 0 0 0 0 0 0 0 0 0 0 127 0" result="hardAlpha"/>
<feOffset dy="1"/>
<feColorMatrix type="matrix" values="0 0 0 0 0 0 0 0 0 0 0 0 0 0 0 0 0 0 0.06 0"/>
<feBlend mode="normal" in2="BackgroundImageFix" result="effect1_dropShadow_153_306"/>
<feBlend mode="normal" in="SourceGraphic" in2="effect1_dropShadow_153_306" result="shape"/>
</filter>
<linearGradient id="paint0_linear_153_306" x1="17.125" y1="17.6001" x2="17.125" y2="25.6001" gradientUnits="userSpaceOnUse">
<stop stop-color="white"/>
<stop offset="1" stop-color="#F0F0F0"/>
</linearGradient>
</defs>
</svg>
